<?xml version="1.0" encoding="utf-8"?>
<svg width="83" height="82" viewBox="0 0 83 82" fill="none" xmlns="http://www.w3.org/2000/svg">
  <defs>
    <clipPath id="clip-path">
      <path class="cls-1" d="M22.7,47.42c34.09,13.38,44,40.43,44,40.43-7.41-33.61-33.39-49.59-45.82-55A53.34,53.34,0,0,1,22.7,47.42" style="fill: none;"/>
    </clipPath>
    <linearGradient id="Безымянный_градиент_2" x1="-301.32" y1="343.24" x2="-300.32" y2="343.24" gradientTransform="matrix(45.82, 0, 0, -45.82, 13825.99, 15786.05)" gradientUnits="userSpaceOnUse">
      <stop offset="0" stop-color="#ffcc02"/>
      <stop offset="0" stop-color="#ffcc02"/>
      <stop offset="1" stop-color="#f37c20"/>
    </linearGradient>
    <clipPath id="clip-path-2">
      <path class="cls-1" d="M19.07,24.83c36.5,15.56,45.53,48.4,45.53,48.4C60.21,27.57,19.77,6.59,0,0,1.71,1.3,14.81,13.3,19.07,24.83" style="fill: none;"/>
    </clipPath>
    <linearGradient id="Безымянный_градиент_2-2" x1="-301.32" y1="343.24" x2="-300.32" y2="343.24" gradientTransform="matrix(64.59, 0, 0, -64.59, 19463.53, 22207.89)" gradientUnits="userSpaceOnUse">
      <stop offset="0" stop-color="#ffcc02"/>
      <stop offset="0" stop-color="#ffcc02"/>
      <stop offset="1" stop-color="#f37c20"/>
    </linearGradient>
  </defs>
  <g id="Слой_1-2" data-name="Слой 1" transform="matrix(0.925335, 0, 0, 0.925335, 9.783574, 0.709313)">
    <g class="cls-2" style="clip-path: url(#clip-path);">
      <rect class="cls-3" x="20.83" y="32.81" width="45.82" height="55.04" style="fill: url(#Безымянный_градиент_2);"/>
    </g>
    <g class="cls-4" style="clip-path: url(#clip-path-2);">
      <rect class="cls-5" width="64.6" height="73.23" style="fill: url(#Безымянный_градиент_2-2);"/>
    </g>
  </g>
</svg>