<svg viewBox="0 0 165.89 51.24" xmlns="http://www.w3.org/2000/svg"><g fill="#000200"><path d="m160.45 36.46v-3.2c-.17.08-.28.1-.33.16-3.89 4.92-12.14 5-17 .08-6.3-6.43-4.51-17.57 3.5-21.49 4.38-2.14 10.2-1.43 13.39 2.41.08.1.19.18.44.41v-3.34h5.45v24.97zm-7.82-4.46a7.71 7.71 0 0 0 7.85-8 7.9 7.9 0 1 0 -15.78 0 7.74 7.74 0 0 0 7.94 8"/><path d="m26.34 23.94a13 13 0 0 1 -13.09 13.22 13.18 13.18 0 1 1 -.09-26.36 13 13 0 0 1 13.18 13.14m-13.2-7.83a7.62 7.62 0 0 0 -7.74 7.95 7.79 7.79 0 1 0 15.6-.06 7.64 7.64 0 0 0 -7.83-7.87"/><path d="m59.25 36.49h-5.31v-24.93h5.3v3a8.87 8.87 0 0 1 4.52-3.24c6.76-1.93 12.51 2.05 12.74 9.06.18 5.23 0 16.14 0 16.14h-5.36s0-10 0-14.51a9.42 9.42 0 0 0 -.3-2.47c-.78-2.77-3.55-4.17-6.75-3.49a5.86 5.86 0 0 0 -4.79 6.07c-.09 4.4-.05 14.42-.05 14.42"/><path d="m112.6 11.53h5.35s0 10.12 0 14.62a6.77 6.77 0 0 0 .45 2.73 5.8 5.8 0 0 0 1.88 2.36 6.12 6.12 0 0 0 9.32-4.07 16.51 16.51 0 0 0 .23-2.78c0-3.9 0-12.83 0-12.83h5.3v24.91h-5.23v-2.87a5.59 5.59 0 0 0 -.57.46c-2.77 3.2-6.34 3.65-10.15 2.68-3.63-.93-5.6-3.56-6.36-7.13a12.06 12.06 0 0 1 -.24-2.48c0-4.94 0-15.59 0-15.59"/><path d="m30.33 0h5.22v36.45h-5.22z"/><path d="m42.25 11.49h5.31v24.98h-5.31z"/><path d="m107.08 45.91v-34.42s-3.84 0-5.4 0v3.35c-.29-.27-.42-.36-.52-.48-3.2-3.86-9.07-4.5-13.39-2.35a13.48 13.48 0 0 0 -6.23 17.19c2.63 6.6 10.04 9.8 16.21 6.94a27.82 27.82 0 0 0 3.92-2.7v17.8a23.46 23.46 0 0 1 5.42-5.33m-13.34-13.91a7.71 7.71 0 0 1 -7.84-8 7.88 7.88 0 1 1 15.75 0 7.66 7.66 0 0 1 -7.91 8"/><path d="m48.66 3.76a3.75 3.75 0 1 1 -3.75-3.76 3.75 3.75 0 0 1 3.75 3.75"/></g></svg>