<svg viewBox="0 256 512 256" width="512" height="256" xmlns="http://www.w3.org/2000/svg" fill="#377ae5">
  <path d="m8.535156 401.066406c4.710938 0 8.53125-3.820312 8.53125-8.53125v-17.070312c0-4.710938-3.820312-8.53125-8.53125-8.53125-4.714844 0-8.535156 3.820312-8.535156 8.53125v17.070312c0 4.710938 3.820312 8.53125 8.535156 8.53125zm0 0" transform="matrix(1, 0, 0, 1, 0, 0)"/>
  <path d="m42.667969 401.066406v-34.132812c0-4.714844-3.820313-8.535156-8.535157-8.535156-4.710937 0-8.53125 3.820312-8.53125 8.535156v34.132812c0 4.714844 3.820313 8.535156 8.53125 8.535156 4.714844 0 8.535157-3.820312 8.535157-8.535156zm0 0" transform="matrix(1, 0, 0, 1, 0, 0)"/>
  <path d="m145.066406 401.066406v-34.132812c0-4.714844-3.820312-8.535156-8.53125-8.535156-4.714844 0-8.535156 3.820312-8.535156 8.535156v34.132812c0 4.714844 3.820312 8.535156 8.535156 8.535156 4.710938 0 8.53125-3.820312 8.53125-8.535156zm0 0" transform="matrix(1, 0, 0, 1, 0, 0)"/>
  <path d="m76.800781 418.132812v-68.265624c0-4.714844-3.820312-8.535157-8.535156-8.535157-4.710937 0-8.53125 3.820313-8.53125 8.535157v68.265624c0 4.714844 3.820313 8.535157 8.53125 8.535157 4.714844 0 8.535156-3.820313 8.535156-8.535157zm0 0" transform="matrix(1, 0, 0, 1, 0, 0)"/>
  <path d="m110.933594 418.132812v-68.265624c0-4.714844-3.820313-8.535157-8.535156-8.535157-4.710938 0-8.53125 3.820313-8.53125 8.535157v68.265624c0 4.714844 3.820312 8.535157 8.53125 8.535157 4.714843 0 8.535156-3.820313 8.535156-8.535157zm0 0" transform="matrix(1, 0, 0, 1, 0, 0)"/>
  <path d="m179.199219 435.199219v-102.398438c0-4.714843-3.820313-8.535156-8.53125-8.535156-4.714844 0-8.535157 3.820313-8.535157 8.535156v102.398438c0 4.714843 3.820313 8.535156 8.535157 8.535156 4.710937 0 8.53125-3.820313 8.53125-8.535156zm0 0" transform="matrix(1, 0, 0, 1, 0, 0)"/>
  <path d="m213.332031 452.265625v-136.53125c0-4.714844-3.820312-8.535156-8.53125-8.535156-4.714843 0-8.535156 3.820312-8.535156 8.535156v136.53125c0 4.714844 3.820313 8.535156 8.535156 8.535156 4.710938 0 8.53125-3.820312 8.53125-8.535156zm0 0" transform="matrix(1, 0, 0, 1, 0, 0)"/>
  <path d="m247.464844 503.464844v-238.929688c0-4.714844-3.820313-8.535156-8.53125-8.535156-4.714844 0-8.535156 3.820312-8.535156 8.535156v238.929688c0 4.714844 3.820312 8.535156 8.535156 8.535156 4.710937 0 8.53125-3.820312 8.53125-8.535156zm0 0" transform="matrix(1, 0, 0, 1, 0, 0)"/>
  <path d="m503.464844 366.933594c-4.710938 0-8.53125 3.820312-8.53125 8.53125v17.070312c0 4.710938 3.820312 8.53125 8.53125 8.53125 4.714844 0 8.535156-3.820312 8.535156-8.53125v-17.070312c0-4.710938-3.820312-8.53125-8.535156-8.53125zm0 0" transform="matrix(1, 0, 0, 1, 0, 0)"/>
  <path d="m486.398438 401.066406v-34.132812c0-4.714844-3.820313-8.535156-8.53125-8.535156-4.714844 0-8.535157 3.820312-8.535157 8.535156v34.132812c0 4.714844 3.820313 8.535156 8.535157 8.535156 4.710937 0 8.53125-3.820312 8.53125-8.535156zm0 0" transform="matrix(1, 0, 0, 1, 0, 0)"/>
  <path d="m384 401.066406v-34.132812c0-4.714844-3.820312-8.535156-8.535156-8.535156-4.710938 0-8.53125 3.820312-8.53125 8.535156v34.132812c0 4.714844 3.820312 8.535156 8.53125 8.535156 4.714844 0 8.535156-3.820312 8.535156-8.535156zm0 0" transform="matrix(1, 0, 0, 1, 0, 0)"/>
  <path d="m452.265625 418.132812v-68.265624c0-4.714844-3.820313-8.535157-8.53125-8.535157-4.714844 0-8.535156 3.820313-8.535156 8.535157v68.265624c0 4.714844 3.820312 8.535157 8.535156 8.535157 4.710937 0 8.53125-3.820313 8.53125-8.535157zm0 0" transform="matrix(1, 0, 0, 1, 0, 0)"/>
  <path d="m418.132812 418.132812v-68.265624c0-4.714844-3.820312-8.535157-8.53125-8.535157-4.714843 0-8.535156 3.820313-8.535156 8.535157v68.265624c0 4.714844 3.820313 8.535157 8.535156 8.535157 4.710938 0 8.53125-3.820313 8.53125-8.535157zm0 0" transform="matrix(1, 0, 0, 1, 0, 0)"/>
  <path d="m349.867188 435.199219v-102.398438c0-4.714843-3.820313-8.535156-8.535157-8.535156-4.710937 0-8.53125 3.820313-8.53125 8.535156v102.398438c0 4.714843 3.820313 8.535156 8.53125 8.535156 4.714844 0 8.535157-3.820313 8.535157-8.535156zm0 0" transform="matrix(1, 0, 0, 1, 0, 0)"/>
  <path d="m315.734375 452.265625v-136.53125c0-4.714844-3.820313-8.535156-8.535156-8.535156-4.710938 0-8.53125 3.820312-8.53125 8.535156v136.53125c0 4.714844 3.820312 8.535156 8.53125 8.535156 4.714843 0 8.535156-3.820312 8.535156-8.535156zm0 0" transform="matrix(1, 0, 0, 1, 0, 0)"/>
  <path d="m281.601562 503.464844v-238.929688c0-4.714844-3.820312-8.535156-8.535156-8.535156-4.710937 0-8.53125 3.820312-8.53125 8.535156v238.929688c0 4.714844 3.820313 8.535156 8.53125 8.535156 4.714844 0 8.535156-3.820312 8.535156-8.535156zm0 0" transform="matrix(1, 0, 0, 1, 0, 0)"/>
</svg>